<svg xmlns="http://www.w3.org/2000/svg" xmlns:xlink="http://www.w3.org/1999/xlink" width="384.505" height="359.961" viewBox="0 0 384.505 359.961"><defs><linearGradient id="a" x1="0.5" y1="1" x2="0.5" gradientUnits="objectBoundingBox"><stop offset="0" stop-color="#4734f7"/><stop offset="1" stop-color="#6400bd"/></linearGradient></defs><g transform="translate(-54.118 -2702.683)"><path d="M90.364,298.845A215.869,215.869,0,0,0,112.509,203,218.279,218.279,0,0,0,0,12.179,150.271,150.271,0,0,1,28.678,3.151a152.445,152.445,0,0,1,61.262-.083,150.173,150.173,0,0,1,53.994,22.721A151.839,151.839,0,0,1,184.72,66.575a151.022,151.022,0,0,1,13.922,25.65,150.24,150.24,0,0,1,8.8,28.344A152.117,152.117,0,0,1,210.508,151a150.385,150.385,0,0,1-34.347,95.891,151.329,151.329,0,0,1-38.084,33.086,149.754,149.754,0,0,1-47.711,18.867h0Z" transform="matrix(-0.588, 0.809, -0.809, -0.588, 419.623, 2892.34)" fill="#e8e8ea"/><path d="M90.364,298.845A215.869,215.869,0,0,0,112.509,203,218.279,218.279,0,0,0,0,12.179,150.271,150.271,0,0,1,28.678,3.151a152.445,152.445,0,0,1,61.262-.083,150.173,150.173,0,0,1,53.994,22.721A151.839,151.839,0,0,1,184.72,66.575a151.022,151.022,0,0,1,13.922,25.65,150.24,150.24,0,0,1,8.8,28.344A152.117,152.117,0,0,1,210.508,151a150.385,150.385,0,0,1-34.347,95.891,151.329,151.329,0,0,1-38.084,33.086,149.754,149.754,0,0,1-47.711,18.867h0Z" transform="matrix(-0.588, 0.809, -0.809, -0.588, 438.623, 2878.34)" fill="url(#a)"/></g></svg>