<svg xmlns="http://www.w3.org/2000/svg" xmlns:xlink="http://www.w3.org/1999/xlink" width="401.233" height="401.233" viewBox="0 0 401.233 401.233"><defs><linearGradient id="a" x1="0.5" x2="0.5" y2="1" gradientUnits="objectBoundingBox"><stop offset="0" stop-color="#5e35b1"/><stop offset="0.415" stop-color="#290097"/><stop offset="1" stop-color="#6400bd"/></linearGradient></defs><g transform="translate(-661.596 -1179.771)"><circle cx="200.617" cy="200.617" r="200.617" transform="translate(661.596 1179.771)" fill="#f5f5f5"/><path d="M-735.25-572.767a140.643,140.643,0,0,1-28.138-2.837,138.915,138.915,0,0,1-26.208-8.135,139.631,139.631,0,0,1-23.716-12.873,140.612,140.612,0,0,1-20.663-17.048,140.621,140.621,0,0,1-17.048-20.663A139.622,139.622,0,0,1-863.9-658.039a138.91,138.91,0,0,1-8.135-26.207,140.646,140.646,0,0,1-2.836-28.137,140.607,140.607,0,0,1,3-28.922,138.886,138.886,0,0,1,8.589-26.861,139.669,139.669,0,0,1,13.569-24.189,140.641,140.641,0,0,1,17.939-20.907c7.379,50.451,51.453,88.5,102.521,88.5a103.5,103.5,0,0,0,100.424-77.991,139.107,139.107,0,0,1,24.36,41.394,139.112,139.112,0,0,1,8.833,48.98,140.643,140.643,0,0,1-2.837,28.137,138.905,138.905,0,0,1-8.135,26.207,139.633,139.633,0,0,1-12.873,23.716,140.619,140.619,0,0,1-17.048,20.663,140.619,140.619,0,0,1-20.663,17.048,139.633,139.633,0,0,1-23.716,12.873,138.915,138.915,0,0,1-26.207,8.135A140.641,140.641,0,0,1-735.25-572.767Z" transform="translate(1602.464 2088.771)" fill="url(#a)"/></g></svg>