<svg xmlns="http://www.w3.org/2000/svg" xmlns:xlink="http://www.w3.org/1999/xlink" width="167.994" height="145.487" viewBox="0 0 167.994 145.487"><defs><clipPath id="a"><path d="M362.844,135.449l-84,145.487H446.841l-84-145.487-84,145.487H446.841Z" transform="translate(-278.847 -135.449)" fill="none"/></clipPath></defs><g transform="translate(0 0)" clip-path="url(#a)"><g transform="translate(83.431 143.119)"><g transform="translate(0 58.797)"><path d="M318.743,227.63a1.807,1.807,0,1,1-1.807,1.807A1.807,1.807,0,0,1,318.743,227.63Z" transform="translate(-316.936 -227.63)" fill="#242c36"/></g><g transform="translate(0.001 44.098)"><path d="M320.541,222.539a1.807,1.807,0,1,1-1.985-1.61A1.808,1.808,0,0,1,320.541,222.539Z" transform="translate(-316.936 -220.92)" fill="#242c36"/></g><g transform="translate(0.001 29.398)"><path d="M320.541,215.828a1.807,1.807,0,1,1-1.985-1.61A1.807,1.807,0,0,1,320.541,215.828Z" transform="translate(-316.936 -214.209)" fill="#242c36"/></g><g transform="translate(0.001)"><path d="M320.541,202.405a1.807,1.807,0,1,1-1.985-1.608A1.806,1.806,0,0,1,320.541,202.405Z" transform="translate(-316.936 -200.787)" fill="#242c36"/></g><g transform="translate(0.001 14.698)"><path d="M320.541,209.117a1.807,1.807,0,1,1-1.985-1.61A1.807,1.807,0,0,1,320.541,209.117Z" transform="translate(-316.936 -207.498)" fill="#242c36"/></g><g transform="translate(12.836 58.797)"><path d="M324.6,227.63a1.807,1.807,0,1,1-1.807,1.807A1.808,1.808,0,0,1,324.6,227.63Z" transform="translate(-322.796 -227.63)" fill="#242c36"/></g><g transform="translate(12.837 44.098)"><path d="M326.4,222.539a1.807,1.807,0,1,1-1.984-1.61A1.807,1.807,0,0,1,326.4,222.539Z" transform="translate(-322.796 -220.92)" fill="#242c36"/></g><g transform="translate(12.837 29.398)"><path d="M326.4,215.828a1.807,1.807,0,1,1-1.984-1.61A1.807,1.807,0,0,1,326.4,215.828Z" transform="translate(-322.796 -214.209)" fill="#242c36"/></g><g transform="translate(12.837)"><path d="M326.4,202.405a1.807,1.807,0,1,1-1.984-1.608A1.806,1.806,0,0,1,326.4,202.405Z" transform="translate(-322.796 -200.787)" fill="#242c36"/></g><g transform="translate(12.837 14.698)"><path d="M326.4,209.117a1.807,1.807,0,1,1-1.984-1.61A1.807,1.807,0,0,1,326.4,209.117Z" transform="translate(-322.796 -207.498)" fill="#242c36"/></g><g transform="translate(26.502)"><g transform="translate(0 58.797)"><path d="M330.842,227.63a1.807,1.807,0,1,1-1.807,1.807A1.807,1.807,0,0,1,330.842,227.63Z" transform="translate(-329.035 -227.63)" fill="#242c36"/></g><g transform="translate(0.001 44.098)"><path d="M332.64,222.539a1.807,1.807,0,1,1-1.985-1.61A1.808,1.808,0,0,1,332.64,222.539Z" transform="translate(-329.036 -220.92)" fill="#242c36"/></g><g transform="translate(0.001 29.398)"><path d="M332.64,215.828a1.807,1.807,0,1,1-1.985-1.61A1.808,1.808,0,0,1,332.64,215.828Z" transform="translate(-329.036 -214.209)" fill="#242c36"/></g><g transform="translate(0.001)"><path d="M332.64,202.405a1.807,1.807,0,1,1-1.985-1.608A1.806,1.806,0,0,1,332.64,202.405Z" transform="translate(-329.036 -200.787)" fill="#242c36"/></g><g transform="translate(0.001 14.698)"><path d="M332.64,209.117a1.807,1.807,0,1,1-1.985-1.61A1.808,1.808,0,0,1,332.64,209.117Z" transform="translate(-329.036 -207.498)" fill="#242c36"/></g><g transform="translate(12.838 58.797)"><path d="M336.7,227.63a1.807,1.807,0,1,1-1.807,1.807A1.809,1.809,0,0,1,336.7,227.63Z" transform="translate(-334.896 -227.63)" fill="#242c36"/></g><g transform="translate(12.837 44.098)"><path d="M338.5,222.539a1.807,1.807,0,1,1-1.984-1.61A1.807,1.807,0,0,1,338.5,222.539Z" transform="translate(-334.896 -220.92)" fill="#242c36"/></g><g transform="translate(12.837 29.398)"><path d="M338.5,215.828a1.807,1.807,0,1,1-1.984-1.61A1.807,1.807,0,0,1,338.5,215.828Z" transform="translate(-334.896 -214.209)" fill="#242c36"/></g><g transform="translate(12.837)"><path d="M338.5,202.405a1.807,1.807,0,1,1-1.984-1.608A1.806,1.806,0,0,1,338.5,202.405Z" transform="translate(-334.896 -200.787)" fill="#242c36"/></g><g transform="translate(12.837 14.698)"><path d="M338.5,209.117a1.807,1.807,0,1,1-1.984-1.61A1.807,1.807,0,0,1,338.5,209.117Z" transform="translate(-334.896 -207.498)" fill="#242c36"/></g></g><g transform="translate(50.647)"><g transform="translate(0 58.797)"><path d="M341.865,227.63a1.807,1.807,0,1,1-1.807,1.807A1.808,1.808,0,0,1,341.865,227.63Z" transform="translate(-340.058 -227.63)" fill="#242c36"/></g><g transform="translate(0.001 44.098)"><path d="M343.663,222.539a1.807,1.807,0,1,1-1.985-1.61A1.808,1.808,0,0,1,343.663,222.539Z" transform="translate(-340.058 -220.92)" fill="#242c36"/></g><g transform="translate(0.001 29.398)"><path d="M343.663,215.828a1.807,1.807,0,1,1-1.985-1.61A1.807,1.807,0,0,1,343.663,215.828Z" transform="translate(-340.058 -214.209)" fill="#242c36"/></g><g transform="translate(0.001)"><path d="M343.663,202.405a1.807,1.807,0,1,1-1.985-1.608A1.806,1.806,0,0,1,343.663,202.405Z" transform="translate(-340.058 -200.787)" fill="#242c36"/></g><g transform="translate(0.001 14.698)"><path d="M343.663,209.117a1.807,1.807,0,1,1-1.985-1.61A1.807,1.807,0,0,1,343.663,209.117Z" transform="translate(-340.058 -207.498)" fill="#242c36"/></g><g transform="translate(12.836 58.797)"><path d="M347.725,227.63a1.807,1.807,0,1,1-1.807,1.807A1.807,1.807,0,0,1,347.725,227.63Z" transform="translate(-345.918 -227.63)" fill="#242c36"/></g><g transform="translate(12.837 44.098)"><path d="M349.523,222.539a1.807,1.807,0,1,1-1.985-1.61A1.807,1.807,0,0,1,349.523,222.539Z" transform="translate(-345.918 -220.92)" fill="#242c36"/></g><g transform="translate(12.837 29.398)"><path d="M349.523,215.828a1.807,1.807,0,1,1-1.985-1.61A1.807,1.807,0,0,1,349.523,215.828Z" transform="translate(-345.918 -214.209)" fill="#242c36"/></g><g transform="translate(12.837)"><path d="M349.523,202.405a1.807,1.807,0,1,1-1.985-1.608A1.806,1.806,0,0,1,349.523,202.405Z" transform="translate(-345.918 -200.787)" fill="#242c36"/></g><g transform="translate(12.837 14.698)"><path d="M349.523,209.117a1.807,1.807,0,1,1-1.985-1.61A1.807,1.807,0,0,1,349.523,209.117Z" transform="translate(-345.918 -207.498)" fill="#242c36"/></g></g><g transform="translate(77.149)"><g transform="translate(0 58.797)"><path d="M353.964,227.63a1.807,1.807,0,1,1-1.807,1.807A1.807,1.807,0,0,1,353.964,227.63Z" transform="translate(-352.157 -227.63)" fill="#242c36"/></g><g transform="translate(0.001 44.098)"><path d="M355.762,222.539a1.807,1.807,0,1,1-1.985-1.61A1.808,1.808,0,0,1,355.762,222.539Z" transform="translate(-352.158 -220.92)" fill="#242c36"/></g><g transform="translate(0.001 29.398)"><path d="M355.762,215.828a1.807,1.807,0,1,1-1.985-1.61A1.808,1.808,0,0,1,355.762,215.828Z" transform="translate(-352.158 -214.209)" fill="#242c36"/></g><g transform="translate(0.001)"><path d="M355.762,202.405a1.807,1.807,0,1,1-1.985-1.608A1.806,1.806,0,0,1,355.762,202.405Z" transform="translate(-352.158 -200.787)" fill="#242c36"/></g><g transform="translate(0.001 14.698)"><path d="M355.762,209.117a1.807,1.807,0,1,1-1.985-1.61A1.808,1.808,0,0,1,355.762,209.117Z" transform="translate(-352.158 -207.498)" fill="#242c36"/></g><g transform="translate(12.838 58.797)"><path d="M359.825,227.63a1.807,1.807,0,1,1-1.807,1.807A1.809,1.809,0,0,1,359.825,227.63Z" transform="translate(-358.018 -227.63)" fill="#242c36"/></g><g transform="translate(12.837 44.098)"><path d="M361.622,222.539a1.807,1.807,0,1,1-1.985-1.61A1.808,1.808,0,0,1,361.622,222.539Z" transform="translate(-358.018 -220.92)" fill="#242c36"/></g><g transform="translate(12.837 29.398)"><path d="M361.622,215.828a1.807,1.807,0,1,1-1.985-1.61A1.807,1.807,0,0,1,361.622,215.828Z" transform="translate(-358.018 -214.209)" fill="#242c36"/></g><g transform="translate(12.837)"><path d="M361.622,202.405a1.807,1.807,0,1,1-1.985-1.608A1.806,1.806,0,0,1,361.622,202.405Z" transform="translate(-358.018 -200.787)" fill="#242c36"/></g><g transform="translate(12.837 14.698)"><path d="M361.622,209.117a1.807,1.807,0,1,1-1.985-1.61A1.807,1.807,0,0,1,361.622,209.117Z" transform="translate(-358.018 -207.498)" fill="#242c36"/></g></g></g><g transform="translate(-22.522 143.119)"><g transform="translate(0 58.797)"><path d="M270.372,227.63a1.807,1.807,0,1,1-1.807,1.807A1.807,1.807,0,0,1,270.372,227.63Z" transform="translate(-268.565 -227.63)" fill="#242c36"/></g><g transform="translate(0.001 44.098)"><path d="M272.17,222.539a1.807,1.807,0,1,1-1.985-1.61A1.808,1.808,0,0,1,272.17,222.539Z" transform="translate(-268.565 -220.92)" fill="#242c36"/></g><g transform="translate(0.001 29.398)"><path d="M272.17,215.828a1.807,1.807,0,1,1-1.985-1.61A1.807,1.807,0,0,1,272.17,215.828Z" transform="translate(-268.565 -214.209)" fill="#242c36"/></g><g transform="translate(0.001)"><path d="M272.17,202.405a1.807,1.807,0,1,1-1.985-1.608A1.806,1.806,0,0,1,272.17,202.405Z" transform="translate(-268.565 -200.787)" fill="#242c36"/></g><g transform="translate(0.001 14.698)"><path d="M272.17,209.117a1.807,1.807,0,1,1-1.985-1.61A1.807,1.807,0,0,1,272.17,209.117Z" transform="translate(-268.565 -207.498)" fill="#242c36"/></g><g transform="translate(12.838 58.797)"><path d="M276.231,227.63a1.807,1.807,0,1,1-1.8,1.807A1.807,1.807,0,0,1,276.231,227.63Z" transform="translate(-274.426 -227.63)" fill="#242c36"/></g><g transform="translate(12.837 44.098)"><path d="M278.03,222.539a1.807,1.807,0,1,1-1.985-1.61A1.808,1.808,0,0,1,278.03,222.539Z" transform="translate(-274.426 -220.92)" fill="#242c36"/></g><g transform="translate(12.837 29.398)"><path d="M278.03,215.828a1.807,1.807,0,1,1-1.985-1.61A1.807,1.807,0,0,1,278.03,215.828Z" transform="translate(-274.426 -214.209)" fill="#242c36"/></g><g transform="translate(12.837)"><path d="M278.03,202.405a1.807,1.807,0,1,1-1.985-1.608A1.806,1.806,0,0,1,278.03,202.405Z" transform="translate(-274.426 -200.787)" fill="#242c36"/></g><g transform="translate(12.837 14.698)"><path d="M278.03,209.117a1.807,1.807,0,1,1-1.985-1.61A1.807,1.807,0,0,1,278.03,209.117Z" transform="translate(-274.426 -207.498)" fill="#242c36"/></g><g transform="translate(26.503)"><g transform="translate(0.001 58.797)"><path d="M282.47,227.63a1.807,1.807,0,1,1-1.8,1.807A1.807,1.807,0,0,1,282.47,227.63Z" transform="translate(-280.665 -227.63)" fill="#242c36"/></g><g transform="translate(0 44.098)"><path d="M284.269,222.539a1.807,1.807,0,1,1-1.984-1.61A1.807,1.807,0,0,1,284.269,222.539Z" transform="translate(-280.665 -220.92)" fill="#242c36"/></g><g transform="translate(0 29.398)"><path d="M284.269,215.828a1.807,1.807,0,1,1-1.984-1.61A1.807,1.807,0,0,1,284.269,215.828Z" transform="translate(-280.665 -214.209)" fill="#242c36"/></g><path d="M284.269,202.405a1.807,1.807,0,1,1-1.984-1.608A1.806,1.806,0,0,1,284.269,202.405Z" transform="translate(-280.665 -200.787)" fill="#242c36"/><g transform="translate(0 14.698)"><path d="M284.269,209.117a1.807,1.807,0,1,1-1.984-1.61A1.807,1.807,0,0,1,284.269,209.117Z" transform="translate(-280.665 -207.498)" fill="#242c36"/></g><g transform="translate(12.837 58.797)"><path d="M288.332,227.63a1.807,1.807,0,1,1-1.807,1.807A1.809,1.809,0,0,1,288.332,227.63Z" transform="translate(-286.525 -227.63)" fill="#242c36"/></g><g transform="translate(12.836 44.098)"><path d="M290.129,222.539a1.807,1.807,0,1,1-1.985-1.61A1.806,1.806,0,0,1,290.129,222.539Z" transform="translate(-286.525 -220.92)" fill="#242c36"/></g><g transform="translate(12.836 29.398)"><path d="M290.129,215.828a1.807,1.807,0,1,1-1.985-1.61A1.806,1.806,0,0,1,290.129,215.828Z" transform="translate(-286.525 -214.209)" fill="#242c36"/></g><g transform="translate(12.836)"><path d="M290.129,202.405a1.807,1.807,0,1,1-1.985-1.608A1.8,1.8,0,0,1,290.129,202.405Z" transform="translate(-286.525 -200.787)" fill="#242c36"/></g><g transform="translate(12.836 14.698)"><path d="M290.129,209.117a1.807,1.807,0,1,1-1.985-1.61A1.806,1.806,0,0,1,290.129,209.117Z" transform="translate(-286.525 -207.498)" fill="#242c36"/></g></g><g transform="translate(50.647)"><g transform="translate(0 58.797)"><path d="M293.494,227.63a1.807,1.807,0,1,1-1.807,1.807A1.807,1.807,0,0,1,293.494,227.63Z" transform="translate(-291.687 -227.63)" fill="#242c36"/></g><g transform="translate(0.001 44.098)"><path d="M295.292,222.539a1.807,1.807,0,1,1-1.985-1.61A1.808,1.808,0,0,1,295.292,222.539Z" transform="translate(-291.687 -220.92)" fill="#242c36"/></g><g transform="translate(0.001 29.398)"><path d="M295.292,215.828a1.807,1.807,0,1,1-1.985-1.61A1.807,1.807,0,0,1,295.292,215.828Z" transform="translate(-291.687 -214.209)" fill="#242c36"/></g><g transform="translate(0.001)"><path d="M295.292,202.405a1.807,1.807,0,1,1-1.985-1.608A1.806,1.806,0,0,1,295.292,202.405Z" transform="translate(-291.687 -200.787)" fill="#242c36"/></g><g transform="translate(0.001 14.698)"><path d="M295.292,209.117a1.807,1.807,0,1,1-1.985-1.61A1.807,1.807,0,0,1,295.292,209.117Z" transform="translate(-291.687 -207.498)" fill="#242c36"/></g><g transform="translate(12.838 58.797)"><path d="M299.353,227.63a1.807,1.807,0,1,1-1.8,1.807A1.807,1.807,0,0,1,299.353,227.63Z" transform="translate(-297.548 -227.63)" fill="#242c36"/></g><g transform="translate(12.837 44.098)"><path d="M301.152,222.539a1.807,1.807,0,1,1-1.985-1.61A1.807,1.807,0,0,1,301.152,222.539Z" transform="translate(-297.548 -220.92)" fill="#242c36"/></g><g transform="translate(12.837 29.398)"><path d="M301.152,215.828a1.807,1.807,0,1,1-1.985-1.61A1.807,1.807,0,0,1,301.152,215.828Z" transform="translate(-297.548 -214.209)" fill="#242c36"/></g><g transform="translate(12.837)"><path d="M301.152,202.405a1.807,1.807,0,1,1-1.985-1.608A1.806,1.806,0,0,1,301.152,202.405Z" transform="translate(-297.548 -200.787)" fill="#242c36"/></g><g transform="translate(12.837 14.698)"><path d="M301.152,209.117a1.807,1.807,0,1,1-1.985-1.61A1.807,1.807,0,0,1,301.152,209.117Z" transform="translate(-297.548 -207.498)" fill="#242c36"/></g></g><g transform="translate(77.15)"><g transform="translate(0.001 58.797)"><path d="M305.592,227.63a1.807,1.807,0,1,1-1.8,1.807A1.807,1.807,0,0,1,305.592,227.63Z" transform="translate(-303.787 -227.63)" fill="#242c36"/></g><g transform="translate(0 44.098)"><path d="M307.391,222.539a1.807,1.807,0,1,1-1.985-1.61A1.808,1.808,0,0,1,307.391,222.539Z" transform="translate(-303.787 -220.92)" fill="#242c36"/></g><g transform="translate(0 29.398)"><path d="M307.391,215.828a1.807,1.807,0,1,1-1.985-1.61A1.808,1.808,0,0,1,307.391,215.828Z" transform="translate(-303.787 -214.209)" fill="#242c36"/></g><path d="M307.391,202.405a1.807,1.807,0,1,1-1.985-1.608A1.806,1.806,0,0,1,307.391,202.405Z" transform="translate(-303.787 -200.787)" fill="#242c36"/><g transform="translate(0 14.698)"><path d="M307.391,209.117a1.807,1.807,0,1,1-1.985-1.61A1.808,1.808,0,0,1,307.391,209.117Z" transform="translate(-303.787 -207.498)" fill="#242c36"/></g><g transform="translate(12.837 58.797)"><path d="M311.454,227.63a1.807,1.807,0,1,1-1.807,1.807A1.809,1.809,0,0,1,311.454,227.63Z" transform="translate(-309.647 -227.63)" fill="#242c36"/></g><g transform="translate(12.836 44.098)"><path d="M313.251,222.539a1.807,1.807,0,1,1-1.985-1.61A1.806,1.806,0,0,1,313.251,222.539Z" transform="translate(-309.647 -220.92)" fill="#242c36"/></g><g transform="translate(12.836 29.398)"><path d="M313.251,215.828a1.807,1.807,0,1,1-1.985-1.61A1.806,1.806,0,0,1,313.251,215.828Z" transform="translate(-309.647 -214.209)" fill="#242c36"/></g><g transform="translate(12.836)"><path d="M313.251,202.405a1.807,1.807,0,1,1-1.985-1.608A1.8,1.8,0,0,1,313.251,202.405Z" transform="translate(-309.647 -200.787)" fill="#242c36"/></g><g transform="translate(12.836 14.698)"><path d="M313.251,209.117a1.807,1.807,0,1,1-1.985-1.61A1.806,1.806,0,0,1,313.251,209.117Z" transform="translate(-309.647 -207.498)" fill="#242c36"/></g></g></g><g transform="translate(83.431 70.316)"><g transform="translate(0 58.799)"><path d="M318.743,194.394a1.807,1.807,0,1,1-1.807,1.8A1.806,1.806,0,0,1,318.743,194.394Z" transform="translate(-316.936 -194.394)" fill="#242c36"/></g><g transform="translate(0.001 44.098)"><path d="M320.541,189.3a1.807,1.807,0,1,1-1.985-1.61A1.808,1.808,0,0,1,320.541,189.3Z" transform="translate(-316.936 -187.683)" fill="#242c36"/></g><g transform="translate(0.001 29.398)"><path d="M320.541,182.591a1.807,1.807,0,1,1-1.985-1.61A1.806,1.806,0,0,1,320.541,182.591Z" transform="translate(-316.936 -180.972)" fill="#242c36"/></g><g transform="translate(0.001)"><path d="M320.541,169.17a1.807,1.807,0,1,1-1.985-1.61A1.807,1.807,0,0,1,320.541,169.17Z" transform="translate(-316.936 -167.551)" fill="#242c36"/></g><g transform="translate(0.001 14.7)"><path d="M320.541,175.881a1.807,1.807,0,1,1-1.985-1.61A1.809,1.809,0,0,1,320.541,175.881Z" transform="translate(-316.936 -174.261)" fill="#242c36"/></g><g transform="translate(12.837 58.798)"><ellipse cx="1.807" cy="1.807" rx="1.807" ry="1.807" fill="#242c36"/></g><g transform="translate(12.837 44.098)"><path d="M326.4,189.3a1.807,1.807,0,1,1-1.984-1.61A1.807,1.807,0,0,1,326.4,189.3Z" transform="translate(-322.796 -187.683)" fill="#242c36"/></g><g transform="translate(12.837 29.398)"><path d="M326.4,182.591a1.807,1.807,0,1,1-1.984-1.61A1.806,1.806,0,0,1,326.4,182.591Z" transform="translate(-322.796 -180.972)" fill="#242c36"/></g><g transform="translate(12.837)"><path d="M326.4,169.17a1.807,1.807,0,1,1-1.984-1.61A1.807,1.807,0,0,1,326.4,169.17Z" transform="translate(-322.796 -167.551)" fill="#242c36"/></g><g transform="translate(12.837 14.7)"><path d="M326.4,175.881a1.807,1.807,0,1,1-1.984-1.61A1.809,1.809,0,0,1,326.4,175.881Z" transform="translate(-322.796 -174.261)" fill="#242c36"/></g><g transform="translate(26.503)"><g transform="translate(0 58.798)"><ellipse cx="1.807" cy="1.807" rx="1.807" ry="1.807" fill="#242c36"/></g><g transform="translate(0 44.098)"><path d="M332.64,189.3a1.807,1.807,0,1,1-1.985-1.61A1.808,1.808,0,0,1,332.64,189.3Z" transform="translate(-329.036 -187.683)" fill="#242c36"/></g><g transform="translate(0 29.398)"><path d="M332.64,182.591a1.807,1.807,0,1,1-1.985-1.61A1.806,1.806,0,0,1,332.64,182.591Z" transform="translate(-329.036 -180.972)" fill="#242c36"/></g><g transform="translate(0)"><path d="M332.64,169.17a1.807,1.807,0,1,1-1.985-1.61A1.808,1.808,0,0,1,332.64,169.17Z" transform="translate(-329.036 -167.551)" fill="#242c36"/></g><g transform="translate(0 14.7)"><path d="M332.64,175.881a1.807,1.807,0,1,1-1.985-1.61A1.809,1.809,0,0,1,332.64,175.881Z" transform="translate(-329.036 -174.261)" fill="#242c36"/></g><g transform="translate(12.837 58.799)"><path d="M336.7,194.394a1.807,1.807,0,1,1-1.807,1.8A1.807,1.807,0,0,1,336.7,194.394Z" transform="translate(-334.896 -194.394)" fill="#242c36"/></g><g transform="translate(12.836 44.098)"><path d="M338.5,189.3a1.807,1.807,0,1,1-1.984-1.61A1.807,1.807,0,0,1,338.5,189.3Z" transform="translate(-334.896 -187.683)" fill="#242c36"/></g><g transform="translate(12.836 29.398)"><path d="M338.5,182.591a1.807,1.807,0,1,1-1.984-1.61A1.806,1.806,0,0,1,338.5,182.591Z" transform="translate(-334.896 -180.972)" fill="#242c36"/></g><g transform="translate(12.836)"><path d="M338.5,169.17a1.807,1.807,0,1,1-1.984-1.61A1.807,1.807,0,0,1,338.5,169.17Z" transform="translate(-334.896 -167.551)" fill="#242c36"/></g><g transform="translate(12.836 14.7)"><path d="M338.5,175.881a1.807,1.807,0,1,1-1.984-1.61A1.809,1.809,0,0,1,338.5,175.881Z" transform="translate(-334.896 -174.261)" fill="#242c36"/></g></g><g transform="translate(50.647)"><g transform="translate(0 58.799)"><path d="M341.865,194.394a1.807,1.807,0,1,1-1.807,1.8A1.806,1.806,0,0,1,341.865,194.394Z" transform="translate(-340.058 -194.394)" fill="#242c36"/></g><g transform="translate(0.001 44.098)"><path d="M343.663,189.3a1.807,1.807,0,1,1-1.985-1.61A1.808,1.808,0,0,1,343.663,189.3Z" transform="translate(-340.058 -187.683)" fill="#242c36"/></g><g transform="translate(0.001 29.398)"><path d="M343.663,182.591a1.807,1.807,0,1,1-1.985-1.61A1.806,1.806,0,0,1,343.663,182.591Z" transform="translate(-340.058 -180.972)" fill="#242c36"/></g><g transform="translate(0.001)"><path d="M343.663,169.17a1.807,1.807,0,1,1-1.985-1.61A1.807,1.807,0,0,1,343.663,169.17Z" transform="translate(-340.058 -167.551)" fill="#242c36"/></g><g transform="translate(0.001 14.7)"><path d="M343.663,175.881a1.807,1.807,0,1,1-1.985-1.61A1.809,1.809,0,0,1,343.663,175.881Z" transform="translate(-340.058 -174.261)" fill="#242c36"/></g><g transform="translate(12.837 58.798)"><ellipse cx="1.807" cy="1.807" rx="1.807" ry="1.807" fill="#242c36"/></g><g transform="translate(12.837 44.098)"><path d="M349.523,189.3a1.807,1.807,0,1,1-1.985-1.61A1.807,1.807,0,0,1,349.523,189.3Z" transform="translate(-345.918 -187.683)" fill="#242c36"/></g><g transform="translate(12.837 29.398)"><path d="M349.523,182.591a1.807,1.807,0,1,1-1.985-1.61A1.806,1.806,0,0,1,349.523,182.591Z" transform="translate(-345.918 -180.972)" fill="#242c36"/></g><g transform="translate(12.837)"><path d="M349.523,169.17a1.807,1.807,0,1,1-1.985-1.61A1.807,1.807,0,0,1,349.523,169.17Z" transform="translate(-345.918 -167.551)" fill="#242c36"/></g><g transform="translate(12.837 14.7)"><path d="M349.523,175.881a1.807,1.807,0,1,1-1.985-1.61A1.809,1.809,0,0,1,349.523,175.881Z" transform="translate(-345.918 -174.261)" fill="#242c36"/></g></g><g transform="translate(77.15)"><g transform="translate(0 58.798)"><ellipse cx="1.807" cy="1.807" rx="1.807" ry="1.807" fill="#242c36"/></g><g transform="translate(0 44.098)"><path d="M355.762,189.3a1.807,1.807,0,1,1-1.985-1.61A1.808,1.808,0,0,1,355.762,189.3Z" transform="translate(-352.158 -187.683)" fill="#242c36"/></g><g transform="translate(0 29.398)"><path d="M355.762,182.591a1.807,1.807,0,1,1-1.985-1.61A1.806,1.806,0,0,1,355.762,182.591Z" transform="translate(-352.158 -180.972)" fill="#242c36"/></g><g transform="translate(0)"><path d="M355.762,169.17a1.807,1.807,0,1,1-1.985-1.61A1.808,1.808,0,0,1,355.762,169.17Z" transform="translate(-352.158 -167.551)" fill="#242c36"/></g><g transform="translate(0 14.7)"><path d="M355.762,175.881a1.807,1.807,0,1,1-1.985-1.61A1.809,1.809,0,0,1,355.762,175.881Z" transform="translate(-352.158 -174.261)" fill="#242c36"/></g><g transform="translate(12.837 58.799)"><path d="M359.825,194.394a1.807,1.807,0,1,1-1.807,1.8A1.807,1.807,0,0,1,359.825,194.394Z" transform="translate(-358.018 -194.394)" fill="#242c36"/></g><g transform="translate(12.836 44.098)"><path d="M361.622,189.3a1.807,1.807,0,1,1-1.985-1.61A1.808,1.808,0,0,1,361.622,189.3Z" transform="translate(-358.018 -187.683)" fill="#242c36"/></g><g transform="translate(12.836 29.398)"><path d="M361.622,182.591a1.807,1.807,0,1,1-1.985-1.61A1.806,1.806,0,0,1,361.622,182.591Z" transform="translate(-358.018 -180.972)" fill="#242c36"/></g><g transform="translate(12.836)"><path d="M361.622,169.17a1.807,1.807,0,1,1-1.985-1.61A1.807,1.807,0,0,1,361.622,169.17Z" transform="translate(-358.018 -167.551)" fill="#242c36"/></g><g transform="translate(12.836 14.7)"><path d="M361.622,175.881a1.807,1.807,0,1,1-1.985-1.61A1.809,1.809,0,0,1,361.622,175.881Z" transform="translate(-358.018 -174.261)" fill="#242c36"/></g></g></g><g transform="translate(-22.522 70.316)"><g transform="translate(0 58.799)"><path d="M270.372,194.394a1.807,1.807,0,1,1-1.807,1.8A1.806,1.806,0,0,1,270.372,194.394Z" transform="translate(-268.565 -194.394)" fill="#242c36"/></g><g transform="translate(0.001 44.098)"><path d="M272.17,189.3a1.807,1.807,0,1,1-1.985-1.61A1.808,1.808,0,0,1,272.17,189.3Z" transform="translate(-268.565 -187.683)" fill="#242c36"/></g><g transform="translate(0.001 29.398)"><path d="M272.17,182.591a1.807,1.807,0,1,1-1.985-1.61A1.806,1.806,0,0,1,272.17,182.591Z" transform="translate(-268.565 -180.972)" fill="#242c36"/></g><g transform="translate(0.001)"><path d="M272.17,169.17a1.807,1.807,0,1,1-1.985-1.61A1.807,1.807,0,0,1,272.17,169.17Z" transform="translate(-268.565 -167.551)" fill="#242c36"/></g><g transform="translate(0.001 14.7)"><path d="M272.17,175.881a1.807,1.807,0,1,1-1.985-1.61A1.809,1.809,0,0,1,272.17,175.881Z" transform="translate(-268.565 -174.261)" fill="#242c36"/></g><g transform="translate(12.838 58.799)"><path d="M276.231,194.394a1.807,1.807,0,1,1-1.8,1.8A1.806,1.806,0,0,1,276.231,194.394Z" transform="translate(-274.426 -194.394)" fill="#242c36"/></g><g transform="translate(12.837 44.098)"><path d="M278.03,189.3a1.807,1.807,0,1,1-1.985-1.61A1.808,1.808,0,0,1,278.03,189.3Z" transform="translate(-274.426 -187.683)" fill="#242c36"/></g><g transform="translate(12.837 29.398)"><path d="M278.03,182.591a1.807,1.807,0,1,1-1.985-1.61A1.806,1.806,0,0,1,278.03,182.591Z" transform="translate(-274.426 -180.972)" fill="#242c36"/></g><g transform="translate(12.837)"><path d="M278.03,169.17a1.807,1.807,0,1,1-1.985-1.61A1.807,1.807,0,0,1,278.03,169.17Z" transform="translate(-274.426 -167.551)" fill="#242c36"/></g><g transform="translate(12.837 14.7)"><path d="M278.03,175.881a1.807,1.807,0,1,1-1.985-1.61A1.809,1.809,0,0,1,278.03,175.881Z" transform="translate(-274.426 -174.261)" fill="#242c36"/></g><g transform="translate(26.503)"><g transform="translate(0.001 58.799)"><path d="M282.47,194.394a1.807,1.807,0,1,1-1.8,1.8A1.806,1.806,0,0,1,282.47,194.394Z" transform="translate(-280.665 -194.394)" fill="#242c36"/></g><g transform="translate(0 44.098)"><path d="M284.269,189.3a1.807,1.807,0,1,1-1.984-1.61A1.807,1.807,0,0,1,284.269,189.3Z" transform="translate(-280.665 -187.683)" fill="#242c36"/></g><g transform="translate(0 29.398)"><path d="M284.269,182.591a1.807,1.807,0,1,1-1.984-1.61A1.806,1.806,0,0,1,284.269,182.591Z" transform="translate(-280.665 -180.972)" fill="#242c36"/></g><path d="M284.269,169.17a1.807,1.807,0,1,1-1.984-1.61A1.807,1.807,0,0,1,284.269,169.17Z" transform="translate(-280.665 -167.551)" fill="#242c36"/><g transform="translate(0 14.7)"><path d="M284.269,175.881a1.807,1.807,0,1,1-1.984-1.61A1.809,1.809,0,0,1,284.269,175.881Z" transform="translate(-280.665 -174.261)" fill="#242c36"/></g><g transform="translate(12.836 58.798)"><ellipse cx="1.807" cy="1.807" rx="1.807" ry="1.807" fill="#242c36"/></g><g transform="translate(12.836 44.098)"><path d="M290.129,189.3a1.807,1.807,0,1,1-1.985-1.61A1.806,1.806,0,0,1,290.129,189.3Z" transform="translate(-286.525 -187.683)" fill="#242c36"/></g><g transform="translate(12.836 29.398)"><path d="M290.129,182.591a1.807,1.807,0,1,1-1.985-1.61A1.8,1.8,0,0,1,290.129,182.591Z" transform="translate(-286.525 -180.972)" fill="#242c36"/></g><g transform="translate(12.836)"><path d="M290.129,169.17a1.807,1.807,0,1,1-1.985-1.61A1.806,1.806,0,0,1,290.129,169.17Z" transform="translate(-286.525 -167.551)" fill="#242c36"/></g><g transform="translate(12.836 14.7)"><path d="M290.129,175.881a1.807,1.807,0,1,1-1.985-1.61A1.807,1.807,0,0,1,290.129,175.881Z" transform="translate(-286.525 -174.261)" fill="#242c36"/></g></g><g transform="translate(50.647)"><g transform="translate(0 58.799)"><path d="M293.494,194.394a1.807,1.807,0,1,1-1.807,1.8A1.806,1.806,0,0,1,293.494,194.394Z" transform="translate(-291.687 -194.394)" fill="#242c36"/></g><g transform="translate(0.001 44.098)"><path d="M295.292,189.3a1.807,1.807,0,1,1-1.985-1.61A1.808,1.808,0,0,1,295.292,189.3Z" transform="translate(-291.687 -187.683)" fill="#242c36"/></g><g transform="translate(0.001 29.398)"><path d="M295.292,182.591a1.807,1.807,0,1,1-1.985-1.61A1.806,1.806,0,0,1,295.292,182.591Z" transform="translate(-291.687 -180.972)" fill="#242c36"/></g><g transform="translate(0.001)"><path d="M295.292,169.17a1.807,1.807,0,1,1-1.985-1.61A1.807,1.807,0,0,1,295.292,169.17Z" transform="translate(-291.687 -167.551)" fill="#242c36"/></g><g transform="translate(0.001 14.7)"><path d="M295.292,175.881a1.807,1.807,0,1,1-1.985-1.61A1.809,1.809,0,0,1,295.292,175.881Z" transform="translate(-291.687 -174.261)" fill="#242c36"/></g><g transform="translate(12.838 58.799)"><path d="M299.353,194.394a1.807,1.807,0,1,1-1.8,1.8A1.806,1.806,0,0,1,299.353,194.394Z" transform="translate(-297.548 -194.394)" fill="#242c36"/></g><g transform="translate(12.837 44.098)"><path d="M301.152,189.3a1.807,1.807,0,1,1-1.985-1.61A1.807,1.807,0,0,1,301.152,189.3Z" transform="translate(-297.548 -187.683)" fill="#242c36"/></g><g transform="translate(12.837 29.398)"><path d="M301.152,182.591a1.807,1.807,0,1,1-1.985-1.61A1.806,1.806,0,0,1,301.152,182.591Z" transform="translate(-297.548 -180.972)" fill="#242c36"/></g><g transform="translate(12.837)"><path d="M301.152,169.17a1.807,1.807,0,1,1-1.985-1.61A1.807,1.807,0,0,1,301.152,169.17Z" transform="translate(-297.548 -167.551)" fill="#242c36"/></g><g transform="translate(12.837 14.7)"><path d="M301.152,175.881a1.807,1.807,0,1,1-1.985-1.61A1.809,1.809,0,0,1,301.152,175.881Z" transform="translate(-297.548 -174.261)" fill="#242c36"/></g></g><g transform="translate(77.15)"><g transform="translate(0.001 58.799)"><path d="M305.592,194.394a1.807,1.807,0,1,1-1.8,1.8A1.806,1.806,0,0,1,305.592,194.394Z" transform="translate(-303.787 -194.394)" fill="#242c36"/></g><g transform="translate(0 44.098)"><path d="M307.391,189.3a1.807,1.807,0,1,1-1.985-1.61A1.808,1.808,0,0,1,307.391,189.3Z" transform="translate(-303.787 -187.683)" fill="#242c36"/></g><g transform="translate(0 29.398)"><path d="M307.391,182.591a1.807,1.807,0,1,1-1.985-1.61A1.806,1.806,0,0,1,307.391,182.591Z" transform="translate(-303.787 -180.972)" fill="#242c36"/></g><path d="M307.391,169.17a1.807,1.807,0,1,1-1.985-1.61A1.808,1.808,0,0,1,307.391,169.17Z" transform="translate(-303.787 -167.551)" fill="#242c36"/><g transform="translate(0 14.7)"><path d="M307.391,175.881a1.807,1.807,0,1,1-1.985-1.61A1.809,1.809,0,0,1,307.391,175.881Z" transform="translate(-303.787 -174.261)" fill="#242c36"/></g><g transform="translate(12.836 58.798)"><ellipse cx="1.807" cy="1.807" rx="1.807" ry="1.807" fill="#242c36"/></g><g transform="translate(12.836 44.098)"><path d="M313.251,189.3a1.807,1.807,0,1,1-1.985-1.61A1.806,1.806,0,0,1,313.251,189.3Z" transform="translate(-309.647 -187.683)" fill="#242c36"/></g><g transform="translate(12.836 29.398)"><path d="M313.251,182.591a1.807,1.807,0,1,1-1.985-1.61A1.8,1.8,0,0,1,313.251,182.591Z" transform="translate(-309.647 -180.972)" fill="#242c36"/></g><g transform="translate(12.836)"><path d="M313.251,169.17a1.807,1.807,0,1,1-1.985-1.61A1.806,1.806,0,0,1,313.251,169.17Z" transform="translate(-309.647 -167.551)" fill="#242c36"/></g><g transform="translate(12.836 14.7)"><path d="M313.251,175.881a1.807,1.807,0,1,1-1.985-1.61A1.807,1.807,0,0,1,313.251,175.881Z" transform="translate(-309.647 -174.261)" fill="#242c36"/></g></g></g><g transform="translate(83.431 -1.858)"><g transform="translate(0 58.797)"><path d="M318.743,161.443a1.807,1.807,0,1,1-1.807,1.807A1.808,1.808,0,0,1,318.743,161.443Z" transform="translate(-316.936 -161.443)" fill="#242c36"/></g><g transform="translate(0.001 44.098)"><path d="M320.541,156.352a1.807,1.807,0,1,1-1.985-1.61A1.808,1.808,0,0,1,320.541,156.352Z" transform="translate(-316.936 -154.733)" fill="#242c36"/></g><g transform="translate(0.001 29.398)"><path d="M320.541,149.641a1.807,1.807,0,1,1-1.985-1.61A1.807,1.807,0,0,1,320.541,149.641Z" transform="translate(-316.936 -148.022)" fill="#242c36"/></g><g transform="translate(0.001)"><path d="M320.541,136.22a1.807,1.807,0,1,1-1.985-1.61A1.809,1.809,0,0,1,320.541,136.22Z" transform="translate(-316.936 -134.6)" fill="#242c36"/></g><g transform="translate(0.001 14.698)"><path d="M320.541,142.93a1.807,1.807,0,1,1-1.985-1.61A1.807,1.807,0,0,1,320.541,142.93Z" transform="translate(-316.936 -141.311)" fill="#242c36"/></g><g transform="translate(12.837 58.797)"><ellipse cx="1.807" cy="1.807" rx="1.807" ry="1.807" fill="#242c36"/></g><g transform="translate(12.837 44.098)"><path d="M326.4,156.352a1.807,1.807,0,1,1-1.984-1.61A1.807,1.807,0,0,1,326.4,156.352Z" transform="translate(-322.796 -154.733)" fill="#242c36"/></g><g transform="translate(12.837 29.398)"><path d="M326.4,149.641a1.807,1.807,0,1,1-1.984-1.61A1.807,1.807,0,0,1,326.4,149.641Z" transform="translate(-322.796 -148.022)" fill="#242c36"/></g><g transform="translate(12.837)"><path d="M326.4,136.22a1.807,1.807,0,1,1-1.984-1.61A1.809,1.809,0,0,1,326.4,136.22Z" transform="translate(-322.796 -134.6)" fill="#242c36"/></g><g transform="translate(12.837 14.698)"><path d="M326.4,142.93a1.807,1.807,0,1,1-1.984-1.61A1.807,1.807,0,0,1,326.4,142.93Z" transform="translate(-322.796 -141.311)" fill="#242c36"/></g><g transform="translate(26.503)"><g transform="translate(0 58.797)"><ellipse cx="1.807" cy="1.807" rx="1.807" ry="1.807" fill="#242c36"/></g><g transform="translate(0 44.098)"><path d="M332.64,156.352a1.807,1.807,0,1,1-1.985-1.61A1.808,1.808,0,0,1,332.64,156.352Z" transform="translate(-329.036 -154.733)" fill="#242c36"/></g><g transform="translate(0 29.398)"><path d="M332.64,149.641a1.807,1.807,0,1,1-1.985-1.61A1.808,1.808,0,0,1,332.64,149.641Z" transform="translate(-329.036 -148.022)" fill="#242c36"/></g><g transform="translate(0)"><path d="M332.64,136.22a1.807,1.807,0,1,1-1.985-1.61A1.809,1.809,0,0,1,332.64,136.22Z" transform="translate(-329.036 -134.6)" fill="#242c36"/></g><g transform="translate(0 14.698)"><path d="M332.64,142.93a1.807,1.807,0,1,1-1.985-1.61A1.807,1.807,0,0,1,332.64,142.93Z" transform="translate(-329.036 -141.311)" fill="#242c36"/></g><g transform="translate(12.837 58.797)"><path d="M336.7,161.443a1.807,1.807,0,1,1-1.807,1.807A1.809,1.809,0,0,1,336.7,161.443Z" transform="translate(-334.896 -161.443)" fill="#242c36"/></g><g transform="translate(12.836 44.098)"><path d="M338.5,156.352a1.807,1.807,0,1,1-1.984-1.61A1.807,1.807,0,0,1,338.5,156.352Z" transform="translate(-334.896 -154.733)" fill="#242c36"/></g><g transform="translate(12.836 29.398)"><path d="M338.5,149.641a1.807,1.807,0,1,1-1.984-1.61A1.807,1.807,0,0,1,338.5,149.641Z" transform="translate(-334.896 -148.022)" fill="#242c36"/></g><g transform="translate(12.836)"><path d="M338.5,136.22a1.807,1.807,0,1,1-1.984-1.61A1.809,1.809,0,0,1,338.5,136.22Z" transform="translate(-334.896 -134.6)" fill="#242c36"/></g><g transform="translate(12.836 14.698)"><path d="M338.5,142.93a1.807,1.807,0,1,1-1.984-1.61A1.807,1.807,0,0,1,338.5,142.93Z" transform="translate(-334.896 -141.311)" fill="#242c36"/></g></g><g transform="translate(50.647)"><g transform="translate(0 58.797)"><path d="M341.865,161.443a1.807,1.807,0,1,1-1.807,1.807A1.808,1.808,0,0,1,341.865,161.443Z" transform="translate(-340.058 -161.443)" fill="#242c36"/></g><g transform="translate(0.001 44.098)"><path d="M343.663,156.352a1.807,1.807,0,1,1-1.985-1.61A1.808,1.808,0,0,1,343.663,156.352Z" transform="translate(-340.058 -154.733)" fill="#242c36"/></g><g transform="translate(0.001 29.398)"><path d="M343.663,149.641a1.807,1.807,0,1,1-1.985-1.61A1.807,1.807,0,0,1,343.663,149.641Z" transform="translate(-340.058 -148.022)" fill="#242c36"/></g><g transform="translate(0.001)"><path d="M343.663,136.22a1.807,1.807,0,1,1-1.985-1.61A1.809,1.809,0,0,1,343.663,136.22Z" transform="translate(-340.058 -134.6)" fill="#242c36"/></g><g transform="translate(0.001 14.698)"><path d="M343.663,142.93a1.807,1.807,0,1,1-1.985-1.61A1.807,1.807,0,0,1,343.663,142.93Z" transform="translate(-340.058 -141.311)" fill="#242c36"/></g><g transform="translate(12.837 58.797)"><ellipse cx="1.807" cy="1.807" rx="1.807" ry="1.807" fill="#242c36"/></g><g transform="translate(12.837 44.098)"><path d="M349.523,156.352a1.807,1.807,0,1,1-1.985-1.61A1.807,1.807,0,0,1,349.523,156.352Z" transform="translate(-345.918 -154.733)" fill="#242c36"/></g><g transform="translate(12.837 29.398)"><path d="M349.523,149.641a1.807,1.807,0,1,1-1.985-1.61A1.807,1.807,0,0,1,349.523,149.641Z" transform="translate(-345.918 -148.022)" fill="#242c36"/></g><g transform="translate(12.837)"><path d="M349.523,136.22a1.807,1.807,0,1,1-1.985-1.61A1.809,1.809,0,0,1,349.523,136.22Z" transform="translate(-345.918 -134.6)" fill="#242c36"/></g><g transform="translate(12.837 14.698)"><path d="M349.523,142.93a1.807,1.807,0,1,1-1.985-1.61A1.807,1.807,0,0,1,349.523,142.93Z" transform="translate(-345.918 -141.311)" fill="#242c36"/></g></g><g transform="translate(77.15)"><g transform="translate(0 58.797)"><ellipse cx="1.807" cy="1.807" rx="1.807" ry="1.807" fill="#242c36"/></g><g transform="translate(0 44.098)"><path d="M355.762,156.352a1.807,1.807,0,1,1-1.985-1.61A1.808,1.808,0,0,1,355.762,156.352Z" transform="translate(-352.158 -154.733)" fill="#242c36"/></g><g transform="translate(0 29.398)"><path d="M355.762,149.641a1.807,1.807,0,1,1-1.985-1.61A1.808,1.808,0,0,1,355.762,149.641Z" transform="translate(-352.158 -148.022)" fill="#242c36"/></g><g transform="translate(0)"><path d="M355.762,136.22a1.807,1.807,0,1,1-1.985-1.61A1.809,1.809,0,0,1,355.762,136.22Z" transform="translate(-352.158 -134.6)" fill="#242c36"/></g><g transform="translate(0 14.698)"><path d="M355.762,142.93a1.807,1.807,0,1,1-1.985-1.61A1.807,1.807,0,0,1,355.762,142.93Z" transform="translate(-352.158 -141.311)" fill="#242c36"/></g><g transform="translate(12.837 58.797)"><path d="M359.825,161.443a1.807,1.807,0,1,1-1.807,1.807A1.809,1.809,0,0,1,359.825,161.443Z" transform="translate(-358.018 -161.443)" fill="#242c36"/></g><g transform="translate(12.836 44.098)"><path d="M361.622,156.352a1.807,1.807,0,1,1-1.985-1.61A1.808,1.808,0,0,1,361.622,156.352Z" transform="translate(-358.018 -154.733)" fill="#242c36"/></g><g transform="translate(12.836 29.398)"><path d="M361.622,149.641a1.807,1.807,0,1,1-1.985-1.61A1.807,1.807,0,0,1,361.622,149.641Z" transform="translate(-358.018 -148.022)" fill="#242c36"/></g><g transform="translate(12.836)"><path d="M361.622,136.22a1.807,1.807,0,1,1-1.985-1.61A1.809,1.809,0,0,1,361.622,136.22Z" transform="translate(-358.018 -134.6)" fill="#242c36"/></g><g transform="translate(12.836 14.698)"><path d="M361.622,142.93a1.807,1.807,0,1,1-1.985-1.61A1.807,1.807,0,0,1,361.622,142.93Z" transform="translate(-358.018 -141.311)" fill="#242c36"/></g></g></g><g transform="translate(-22.522 -1.858)"><g transform="translate(0 58.797)"><path d="M270.372,161.443a1.807,1.807,0,1,1-1.807,1.807A1.807,1.807,0,0,1,270.372,161.443Z" transform="translate(-268.565 -161.443)" fill="#242c36"/></g><g transform="translate(0.001 44.098)"><path d="M272.17,156.352a1.807,1.807,0,1,1-1.985-1.61A1.808,1.808,0,0,1,272.17,156.352Z" transform="translate(-268.565 -154.733)" fill="#242c36"/></g><g transform="translate(0.001 29.398)"><path d="M272.17,149.641a1.807,1.807,0,1,1-1.985-1.61A1.807,1.807,0,0,1,272.17,149.641Z" transform="translate(-268.565 -148.022)" fill="#242c36"/></g><g transform="translate(0.001)"><path d="M272.17,136.22a1.807,1.807,0,1,1-1.985-1.61A1.809,1.809,0,0,1,272.17,136.22Z" transform="translate(-268.565 -134.6)" fill="#242c36"/></g><g transform="translate(0.001 14.698)"><path d="M272.17,142.93a1.807,1.807,0,1,1-1.985-1.61A1.807,1.807,0,0,1,272.17,142.93Z" transform="translate(-268.565 -141.311)" fill="#242c36"/></g><g transform="translate(12.838 58.797)"><path d="M276.231,161.443a1.807,1.807,0,1,1-1.8,1.807A1.808,1.808,0,0,1,276.231,161.443Z" transform="translate(-274.426 -161.443)" fill="#242c36"/></g><g transform="translate(12.837 44.098)"><path d="M278.03,156.352a1.807,1.807,0,1,1-1.985-1.61A1.808,1.808,0,0,1,278.03,156.352Z" transform="translate(-274.426 -154.733)" fill="#242c36"/></g><g transform="translate(12.837 29.398)"><path d="M278.03,149.641a1.807,1.807,0,1,1-1.985-1.61A1.807,1.807,0,0,1,278.03,149.641Z" transform="translate(-274.426 -148.022)" fill="#242c36"/></g><g transform="translate(12.837)"><path d="M278.03,136.22a1.807,1.807,0,1,1-1.985-1.61A1.809,1.809,0,0,1,278.03,136.22Z" transform="translate(-274.426 -134.6)" fill="#242c36"/></g><g transform="translate(12.837 14.698)"><path d="M278.03,142.93a1.807,1.807,0,1,1-1.985-1.61A1.807,1.807,0,0,1,278.03,142.93Z" transform="translate(-274.426 -141.311)" fill="#242c36"/></g><g transform="translate(26.503)"><g transform="translate(0.001 58.797)"><path d="M282.47,161.443a1.807,1.807,0,1,1-1.8,1.807A1.807,1.807,0,0,1,282.47,161.443Z" transform="translate(-280.665 -161.443)" fill="#242c36"/></g><g transform="translate(0 44.098)"><path d="M284.269,156.352a1.807,1.807,0,1,1-1.984-1.61A1.807,1.807,0,0,1,284.269,156.352Z" transform="translate(-280.665 -154.733)" fill="#242c36"/></g><g transform="translate(0 29.398)"><path d="M284.269,149.641a1.807,1.807,0,1,1-1.984-1.61A1.807,1.807,0,0,1,284.269,149.641Z" transform="translate(-280.665 -148.022)" fill="#242c36"/></g><path d="M284.269,136.22a1.807,1.807,0,1,1-1.984-1.61A1.809,1.809,0,0,1,284.269,136.22Z" transform="translate(-280.665 -134.6)" fill="#242c36"/><g transform="translate(0 14.698)"><path d="M284.269,142.93a1.807,1.807,0,1,1-1.984-1.61A1.807,1.807,0,0,1,284.269,142.93Z" transform="translate(-280.665 -141.311)" fill="#242c36"/></g><g transform="translate(12.836 58.797)"><ellipse cx="1.807" cy="1.807" rx="1.807" ry="1.807" fill="#242c36"/></g><g transform="translate(12.836 44.098)"><path d="M290.129,156.352a1.807,1.807,0,1,1-1.985-1.61A1.806,1.806,0,0,1,290.129,156.352Z" transform="translate(-286.525 -154.733)" fill="#242c36"/></g><g transform="translate(12.836 29.398)"><path d="M290.129,149.641a1.807,1.807,0,1,1-1.985-1.61A1.806,1.806,0,0,1,290.129,149.641Z" transform="translate(-286.525 -148.022)" fill="#242c36"/></g><g transform="translate(12.836)"><path d="M290.129,136.22a1.807,1.807,0,1,1-1.985-1.61A1.807,1.807,0,0,1,290.129,136.22Z" transform="translate(-286.525 -134.6)" fill="#242c36"/></g><g transform="translate(12.836 14.698)"><path d="M290.129,142.93a1.807,1.807,0,1,1-1.985-1.61A1.806,1.806,0,0,1,290.129,142.93Z" transform="translate(-286.525 -141.311)" fill="#242c36"/></g></g><g transform="translate(50.647)"><g transform="translate(0 58.797)"><path d="M293.494,161.443a1.807,1.807,0,1,1-1.807,1.807A1.808,1.808,0,0,1,293.494,161.443Z" transform="translate(-291.687 -161.443)" fill="#242c36"/></g><g transform="translate(0.001 44.098)"><path d="M295.292,156.352a1.807,1.807,0,1,1-1.985-1.61A1.808,1.808,0,0,1,295.292,156.352Z" transform="translate(-291.687 -154.733)" fill="#242c36"/></g><g transform="translate(0.001 29.398)"><path d="M295.292,149.641a1.807,1.807,0,1,1-1.985-1.61A1.807,1.807,0,0,1,295.292,149.641Z" transform="translate(-291.687 -148.022)" fill="#242c36"/></g><g transform="translate(0.001)"><path d="M295.292,136.22a1.807,1.807,0,1,1-1.985-1.61A1.809,1.809,0,0,1,295.292,136.22Z" transform="translate(-291.687 -134.6)" fill="#242c36"/></g><g transform="translate(0.001 14.698)"><path d="M295.292,142.93a1.807,1.807,0,1,1-1.985-1.61A1.807,1.807,0,0,1,295.292,142.93Z" transform="translate(-291.687 -141.311)" fill="#242c36"/></g><g transform="translate(12.838 58.797)"><path d="M299.353,161.443a1.807,1.807,0,1,1-1.8,1.807A1.807,1.807,0,0,1,299.353,161.443Z" transform="translate(-297.548 -161.443)" fill="#242c36"/></g><g transform="translate(12.837 44.098)"><path d="M301.152,156.352a1.807,1.807,0,1,1-1.985-1.61A1.807,1.807,0,0,1,301.152,156.352Z" transform="translate(-297.548 -154.733)" fill="#242c36"/></g><g transform="translate(12.837 29.398)"><path d="M301.152,149.641a1.807,1.807,0,1,1-1.985-1.61A1.807,1.807,0,0,1,301.152,149.641Z" transform="translate(-297.548 -148.022)" fill="#242c36"/></g><g transform="translate(12.837)"><path d="M301.152,136.22a1.807,1.807,0,1,1-1.985-1.61A1.809,1.809,0,0,1,301.152,136.22Z" transform="translate(-297.548 -134.6)" fill="#242c36"/></g><g transform="translate(12.837 14.698)"><path d="M301.152,142.93a1.807,1.807,0,1,1-1.985-1.61A1.807,1.807,0,0,1,301.152,142.93Z" transform="translate(-297.548 -141.311)" fill="#242c36"/></g></g><g transform="translate(77.15)"><g transform="translate(0.001 58.797)"><path d="M305.592,161.443a1.807,1.807,0,1,1-1.8,1.807A1.808,1.808,0,0,1,305.592,161.443Z" transform="translate(-303.787 -161.443)" fill="#242c36"/></g><g transform="translate(0 44.098)"><path d="M307.391,156.352a1.807,1.807,0,1,1-1.985-1.61A1.808,1.808,0,0,1,307.391,156.352Z" transform="translate(-303.787 -154.733)" fill="#242c36"/></g><g transform="translate(0 29.398)"><path d="M307.391,149.641a1.807,1.807,0,1,1-1.985-1.61A1.808,1.808,0,0,1,307.391,149.641Z" transform="translate(-303.787 -148.022)" fill="#242c36"/></g><path d="M307.391,136.22a1.807,1.807,0,1,1-1.985-1.61A1.809,1.809,0,0,1,307.391,136.22Z" transform="translate(-303.787 -134.6)" fill="#242c36"/><g transform="translate(0 14.698)"><path d="M307.391,142.93a1.807,1.807,0,1,1-1.985-1.61A1.807,1.807,0,0,1,307.391,142.93Z" transform="translate(-303.787 -141.311)" fill="#242c36"/></g><g transform="translate(12.836 58.797)"><ellipse cx="1.807" cy="1.807" rx="1.807" ry="1.807" fill="#242c36"/></g><g transform="translate(12.836 44.098)"><path d="M313.251,156.352a1.807,1.807,0,1,1-1.985-1.61A1.806,1.806,0,0,1,313.251,156.352Z" transform="translate(-309.647 -154.733)" fill="#242c36"/></g><g transform="translate(12.836 29.398)"><path d="M313.251,149.641a1.807,1.807,0,1,1-1.985-1.61A1.806,1.806,0,0,1,313.251,149.641Z" transform="translate(-309.647 -148.022)" fill="#242c36"/></g><g transform="translate(12.836)"><path d="M313.251,136.22a1.807,1.807,0,1,1-1.985-1.61A1.807,1.807,0,0,1,313.251,136.22Z" transform="translate(-309.647 -134.6)" fill="#242c36"/></g><g transform="translate(12.836 14.698)"><path d="M313.251,142.93a1.807,1.807,0,1,1-1.985-1.61A1.806,1.806,0,0,1,313.251,142.93Z" transform="translate(-309.647 -141.311)" fill="#242c36"/></g></g></g><g transform="translate(90.173 -71.731)"><g transform="translate(0.001 58.797)"><path d="M321.821,129.544a1.807,1.807,0,1,1-1.807,1.807A1.807,1.807,0,0,1,321.821,129.544Z" transform="translate(-320.014 -129.544)" fill="#242c36"/></g><g transform="translate(0 44.098)"><path d="M323.618,124.453a1.807,1.807,0,1,1-1.984-1.61A1.8,1.8,0,0,1,323.618,124.453Z" transform="translate(-320.013 -122.834)" fill="#242c36"/></g><g transform="translate(0 29.398)"><path d="M323.618,117.742a1.807,1.807,0,1,1-1.984-1.61A1.8,1.8,0,0,1,323.618,117.742Z" transform="translate(-320.013 -116.123)" fill="#242c36"/></g><path d="M323.618,104.321a1.807,1.807,0,1,1-1.984-1.61A1.806,1.806,0,0,1,323.618,104.321Z" transform="translate(-320.013 -102.701)" fill="#242c36"/><g transform="translate(0 14.698)"><path d="M323.618,111.031a1.807,1.807,0,1,1-1.984-1.61A1.8,1.8,0,0,1,323.618,111.031Z" transform="translate(-320.013 -109.412)" fill="#242c36"/></g><g transform="translate(12.837 58.797)"><path d="M327.681,129.544a1.807,1.807,0,1,1-1.807,1.807A1.807,1.807,0,0,1,327.681,129.544Z" transform="translate(-325.874 -129.544)" fill="#242c36"/></g><g transform="translate(12.838 44.098)"><path d="M329.479,124.453a1.807,1.807,0,1,1-1.984-1.61A1.807,1.807,0,0,1,329.479,124.453Z" transform="translate(-325.874 -122.834)" fill="#242c36"/></g><g transform="translate(12.838 29.398)"><path d="M329.479,117.742a1.807,1.807,0,1,1-1.984-1.61A1.807,1.807,0,0,1,329.479,117.742Z" transform="translate(-325.874 -116.123)" fill="#242c36"/></g><g transform="translate(12.838)"><path d="M329.479,104.321a1.807,1.807,0,1,1-1.984-1.61A1.809,1.809,0,0,1,329.479,104.321Z" transform="translate(-325.874 -102.701)" fill="#242c36"/></g><g transform="translate(12.838 14.698)"><path d="M329.479,111.031a1.807,1.807,0,1,1-1.984-1.61A1.806,1.806,0,0,1,329.479,111.031Z" transform="translate(-325.874 -109.412)" fill="#242c36"/></g><g transform="translate(26.503)"><g transform="translate(0 58.797)"><path d="M333.92,129.544a1.807,1.807,0,1,1-1.807,1.807A1.807,1.807,0,0,1,333.92,129.544Z" transform="translate(-332.113 -129.544)" fill="#242c36"/></g><g transform="translate(0.001 44.098)"><path d="M335.718,124.453a1.807,1.807,0,1,1-1.985-1.61A1.807,1.807,0,0,1,335.718,124.453Z" transform="translate(-332.113 -122.834)" fill="#242c36"/></g><g transform="translate(0.001 29.398)"><path d="M335.718,117.742a1.807,1.807,0,1,1-1.985-1.61A1.807,1.807,0,0,1,335.718,117.742Z" transform="translate(-332.113 -116.123)" fill="#242c36"/></g><g transform="translate(0.001)"><path d="M335.718,104.321a1.807,1.807,0,1,1-1.985-1.61A1.809,1.809,0,0,1,335.718,104.321Z" transform="translate(-332.113 -102.701)" fill="#242c36"/></g><g transform="translate(0.001 14.698)"><path d="M335.718,111.031a1.807,1.807,0,1,1-1.985-1.61A1.806,1.806,0,0,1,335.718,111.031Z" transform="translate(-332.113 -109.412)" fill="#242c36"/></g><g transform="translate(12.836 58.797)"><path d="M339.78,129.544a1.807,1.807,0,1,1-1.807,1.807A1.807,1.807,0,0,1,339.78,129.544Z" transform="translate(-337.973 -129.544)" fill="#242c36"/></g><g transform="translate(12.837 44.098)"><path d="M341.578,124.453a1.807,1.807,0,1,1-1.984-1.61A1.807,1.807,0,0,1,341.578,124.453Z" transform="translate(-337.974 -122.834)" fill="#242c36"/></g><g transform="translate(12.837 29.398)"><path d="M341.578,117.742a1.807,1.807,0,1,1-1.984-1.61A1.807,1.807,0,0,1,341.578,117.742Z" transform="translate(-337.974 -116.123)" fill="#242c36"/></g><g transform="translate(12.837)"><path d="M341.578,104.321a1.807,1.807,0,1,1-1.984-1.61A1.809,1.809,0,0,1,341.578,104.321Z" transform="translate(-337.974 -102.701)" fill="#242c36"/></g><g transform="translate(12.837 14.698)"><path d="M341.578,111.031a1.807,1.807,0,1,1-1.984-1.61A1.806,1.806,0,0,1,341.578,111.031Z" transform="translate(-337.974 -109.412)" fill="#242c36"/></g></g><g transform="translate(50.647)"><g transform="translate(0.001 58.797)"><path d="M344.943,129.544a1.807,1.807,0,1,1-1.807,1.807A1.807,1.807,0,0,1,344.943,129.544Z" transform="translate(-343.136 -129.544)" fill="#242c36"/></g><g transform="translate(0 44.098)"><path d="M346.74,124.453a1.807,1.807,0,1,1-1.984-1.61A1.8,1.8,0,0,1,346.74,124.453Z" transform="translate(-343.136 -122.834)" fill="#242c36"/></g><g transform="translate(0 29.398)"><path d="M346.74,117.742a1.807,1.807,0,1,1-1.984-1.61A1.8,1.8,0,0,1,346.74,117.742Z" transform="translate(-343.136 -116.123)" fill="#242c36"/></g><path d="M346.74,104.321a1.807,1.807,0,1,1-1.984-1.61A1.806,1.806,0,0,1,346.74,104.321Z" transform="translate(-343.136 -102.701)" fill="#242c36"/><g transform="translate(0 14.698)"><path d="M346.74,111.031a1.807,1.807,0,1,1-1.984-1.61A1.8,1.8,0,0,1,346.74,111.031Z" transform="translate(-343.136 -109.412)" fill="#242c36"/></g><g transform="translate(12.837 58.797)"><path d="M350.8,129.544A1.807,1.807,0,1,1,349,131.351,1.807,1.807,0,0,1,350.8,129.544Z" transform="translate(-348.996 -129.544)" fill="#242c36"/></g><g transform="translate(12.838 44.098)"><path d="M352.6,124.453a1.807,1.807,0,1,1-1.984-1.61A1.807,1.807,0,0,1,352.6,124.453Z" transform="translate(-348.996 -122.834)" fill="#242c36"/></g><g transform="translate(12.838 29.398)"><path d="M352.6,117.742a1.807,1.807,0,1,1-1.984-1.61A1.807,1.807,0,0,1,352.6,117.742Z" transform="translate(-348.996 -116.123)" fill="#242c36"/></g><g transform="translate(12.838)"><path d="M352.6,104.321a1.807,1.807,0,1,1-1.984-1.61A1.809,1.809,0,0,1,352.6,104.321Z" transform="translate(-348.996 -102.701)" fill="#242c36"/></g><g transform="translate(12.838 14.698)"><path d="M352.6,111.031a1.807,1.807,0,1,1-1.984-1.61A1.806,1.806,0,0,1,352.6,111.031Z" transform="translate(-348.996 -109.412)" fill="#242c36"/></g></g><g transform="translate(77.15)"><g transform="translate(0 58.797)"><path d="M357.042,129.544a1.807,1.807,0,1,1-1.807,1.807A1.807,1.807,0,0,1,357.042,129.544Z" transform="translate(-355.235 -129.544)" fill="#242c36"/></g><g transform="translate(0.001 44.098)"><path d="M358.84,124.453a1.807,1.807,0,1,1-1.985-1.61A1.807,1.807,0,0,1,358.84,124.453Z" transform="translate(-355.235 -122.834)" fill="#242c36"/></g><g transform="translate(0.001 29.398)"><path d="M358.84,117.742a1.807,1.807,0,1,1-1.985-1.61A1.807,1.807,0,0,1,358.84,117.742Z" transform="translate(-355.235 -116.123)" fill="#242c36"/></g><g transform="translate(0.001)"><path d="M358.84,104.321a1.807,1.807,0,1,1-1.985-1.61A1.809,1.809,0,0,1,358.84,104.321Z" transform="translate(-355.235 -102.701)" fill="#242c36"/></g><g transform="translate(0.001 14.698)"><path d="M358.84,111.031a1.807,1.807,0,1,1-1.985-1.61A1.806,1.806,0,0,1,358.84,111.031Z" transform="translate(-355.235 -109.412)" fill="#242c36"/></g><g transform="translate(12.836 58.797)"><path d="M362.9,129.544a1.807,1.807,0,1,1-1.807,1.807A1.807,1.807,0,0,1,362.9,129.544Z" transform="translate(-361.095 -129.544)" fill="#242c36"/></g><g transform="translate(12.837 44.098)"><path d="M364.7,124.453a1.807,1.807,0,1,1-1.985-1.61A1.807,1.807,0,0,1,364.7,124.453Z" transform="translate(-361.096 -122.834)" fill="#242c36"/></g><g transform="translate(12.837 29.398)"><path d="M364.7,117.742a1.807,1.807,0,1,1-1.985-1.61A1.807,1.807,0,0,1,364.7,117.742Z" transform="translate(-361.096 -116.123)" fill="#242c36"/></g><g transform="translate(12.837)"><path d="M364.7,104.321a1.807,1.807,0,1,1-1.985-1.61A1.809,1.809,0,0,1,364.7,104.321Z" transform="translate(-361.096 -102.701)" fill="#242c36"/></g><g transform="translate(12.837 14.698)"><path d="M364.7,111.031a1.807,1.807,0,1,1-1.985-1.61A1.806,1.806,0,0,1,364.7,111.031Z" transform="translate(-361.096 -109.412)" fill="#242c36"/></g></g></g><g transform="translate(-15.781 -71.731)"><g transform="translate(0.001 58.797)"><path d="M273.45,129.544a1.807,1.807,0,1,1-1.807,1.807A1.807,1.807,0,0,1,273.45,129.544Z" transform="translate(-271.643 -129.544)" fill="#242c36"/></g><g transform="translate(0 44.098)"><path d="M275.247,124.453a1.807,1.807,0,1,1-1.985-1.61A1.8,1.8,0,0,1,275.247,124.453Z" transform="translate(-271.643 -122.834)" fill="#242c36"/></g><g transform="translate(0 29.398)"><path d="M275.247,117.742a1.807,1.807,0,1,1-1.985-1.61A1.8,1.8,0,0,1,275.247,117.742Z" transform="translate(-271.643 -116.123)" fill="#242c36"/></g><path d="M275.247,104.321a1.807,1.807,0,1,1-1.985-1.61A1.806,1.806,0,0,1,275.247,104.321Z" transform="translate(-271.643 -102.701)" fill="#242c36"/><g transform="translate(0 14.698)"><path d="M275.247,111.031a1.807,1.807,0,1,1-1.985-1.61A1.8,1.8,0,0,1,275.247,111.031Z" transform="translate(-271.643 -109.412)" fill="#242c36"/></g><g transform="translate(12.837 58.797)"><path d="M279.31,129.544a1.807,1.807,0,1,1-1.807,1.807A1.808,1.808,0,0,1,279.31,129.544Z" transform="translate(-277.503 -129.544)" fill="#242c36"/></g><g transform="translate(12.838 44.098)"><path d="M281.108,124.453a1.807,1.807,0,1,1-1.984-1.61A1.807,1.807,0,0,1,281.108,124.453Z" transform="translate(-277.503 -122.834)" fill="#242c36"/></g><g transform="translate(12.838 29.398)"><path d="M281.108,117.742a1.807,1.807,0,1,1-1.984-1.61A1.807,1.807,0,0,1,281.108,117.742Z" transform="translate(-277.503 -116.123)" fill="#242c36"/></g><g transform="translate(12.838)"><path d="M281.108,104.321a1.807,1.807,0,1,1-1.984-1.61A1.809,1.809,0,0,1,281.108,104.321Z" transform="translate(-277.503 -102.701)" fill="#242c36"/></g><g transform="translate(12.838 14.698)"><path d="M281.108,111.031a1.807,1.807,0,1,1-1.984-1.61A1.806,1.806,0,0,1,281.108,111.031Z" transform="translate(-277.503 -109.412)" fill="#242c36"/></g><g transform="translate(26.503)"><g transform="translate(0 58.797)"><path d="M285.549,129.544a1.807,1.807,0,1,1-1.807,1.807A1.807,1.807,0,0,1,285.549,129.544Z" transform="translate(-283.742 -129.544)" fill="#242c36"/></g><g transform="translate(0.001 44.098)"><path d="M287.347,124.453a1.807,1.807,0,1,1-1.985-1.61A1.807,1.807,0,0,1,287.347,124.453Z" transform="translate(-283.742 -122.834)" fill="#242c36"/></g><g transform="translate(0.001 29.398)"><path d="M287.347,117.742a1.807,1.807,0,1,1-1.985-1.61A1.807,1.807,0,0,1,287.347,117.742Z" transform="translate(-283.742 -116.123)" fill="#242c36"/></g><g transform="translate(0.001)"><path d="M287.347,104.321a1.807,1.807,0,1,1-1.985-1.61A1.809,1.809,0,0,1,287.347,104.321Z" transform="translate(-283.742 -102.701)" fill="#242c36"/></g><g transform="translate(0.001 14.698)"><path d="M287.347,111.031a1.807,1.807,0,1,1-1.985-1.61A1.806,1.806,0,0,1,287.347,111.031Z" transform="translate(-283.742 -109.412)" fill="#242c36"/></g><g transform="translate(12.838 58.797)"><path d="M291.408,129.544a1.807,1.807,0,1,1-1.8,1.807A1.807,1.807,0,0,1,291.408,129.544Z" transform="translate(-289.603 -129.544)" fill="#242c36"/></g><g transform="translate(12.837 44.098)"><path d="M293.207,124.453a1.807,1.807,0,1,1-1.984-1.61A1.807,1.807,0,0,1,293.207,124.453Z" transform="translate(-289.603 -122.834)" fill="#242c36"/></g><g transform="translate(12.837 29.398)"><path d="M293.207,117.742a1.807,1.807,0,1,1-1.984-1.61A1.807,1.807,0,0,1,293.207,117.742Z" transform="translate(-289.603 -116.123)" fill="#242c36"/></g><g transform="translate(12.837)"><path d="M293.207,104.321a1.807,1.807,0,1,1-1.984-1.61A1.809,1.809,0,0,1,293.207,104.321Z" transform="translate(-289.603 -102.701)" fill="#242c36"/></g><g transform="translate(12.837 14.698)"><path d="M293.207,111.031a1.807,1.807,0,1,1-1.984-1.61A1.806,1.806,0,0,1,293.207,111.031Z" transform="translate(-289.603 -109.412)" fill="#242c36"/></g></g><g transform="translate(50.647)"><g transform="translate(0.001 58.797)"><path d="M296.572,129.544a1.807,1.807,0,1,1-1.807,1.807A1.808,1.808,0,0,1,296.572,129.544Z" transform="translate(-294.765 -129.544)" fill="#242c36"/></g><g transform="translate(0 44.098)"><path d="M298.369,124.453a1.807,1.807,0,1,1-1.985-1.61A1.8,1.8,0,0,1,298.369,124.453Z" transform="translate(-294.765 -122.834)" fill="#242c36"/></g><g transform="translate(0 29.398)"><path d="M298.369,117.742a1.807,1.807,0,1,1-1.985-1.61A1.8,1.8,0,0,1,298.369,117.742Z" transform="translate(-294.765 -116.123)" fill="#242c36"/></g><path d="M298.369,104.321a1.807,1.807,0,1,1-1.985-1.61A1.806,1.806,0,0,1,298.369,104.321Z" transform="translate(-294.765 -102.701)" fill="#242c36"/><g transform="translate(0 14.698)"><path d="M298.369,111.031a1.807,1.807,0,1,1-1.985-1.61A1.8,1.8,0,0,1,298.369,111.031Z" transform="translate(-294.765 -109.412)" fill="#242c36"/></g><g transform="translate(12.837 58.797)"><path d="M302.432,129.544a1.807,1.807,0,1,1-1.807,1.807A1.807,1.807,0,0,1,302.432,129.544Z" transform="translate(-300.625 -129.544)" fill="#242c36"/></g><g transform="translate(12.838 44.098)"><path d="M304.23,124.453a1.807,1.807,0,1,1-1.984-1.61A1.807,1.807,0,0,1,304.23,124.453Z" transform="translate(-300.625 -122.834)" fill="#242c36"/></g><g transform="translate(12.838 29.398)"><path d="M304.23,117.742a1.807,1.807,0,1,1-1.984-1.61A1.807,1.807,0,0,1,304.23,117.742Z" transform="translate(-300.625 -116.123)" fill="#242c36"/></g><g transform="translate(12.838)"><path d="M304.23,104.321a1.807,1.807,0,1,1-1.984-1.61A1.809,1.809,0,0,1,304.23,104.321Z" transform="translate(-300.625 -102.701)" fill="#242c36"/></g><g transform="translate(12.838 14.698)"><path d="M304.23,111.031a1.807,1.807,0,1,1-1.984-1.61A1.806,1.806,0,0,1,304.23,111.031Z" transform="translate(-300.625 -109.412)" fill="#242c36"/></g></g><g transform="translate(77.15)"><g transform="translate(0 58.797)"><path d="M308.671,129.544a1.807,1.807,0,1,1-1.807,1.807A1.807,1.807,0,0,1,308.671,129.544Z" transform="translate(-306.864 -129.544)" fill="#242c36"/></g><g transform="translate(0.001 44.098)"><path d="M310.469,124.453a1.807,1.807,0,1,1-1.985-1.61A1.808,1.808,0,0,1,310.469,124.453Z" transform="translate(-306.864 -122.834)" fill="#242c36"/></g><g transform="translate(0.001 29.398)"><path d="M310.469,117.742a1.807,1.807,0,1,1-1.985-1.61A1.807,1.807,0,0,1,310.469,117.742Z" transform="translate(-306.864 -116.123)" fill="#242c36"/></g><g transform="translate(0.001)"><path d="M310.469,104.321a1.807,1.807,0,1,1-1.985-1.61A1.809,1.809,0,0,1,310.469,104.321Z" transform="translate(-306.864 -102.701)" fill="#242c36"/></g><g transform="translate(0.001 14.698)"><path d="M310.469,111.031a1.807,1.807,0,1,1-1.985-1.61A1.806,1.806,0,0,1,310.469,111.031Z" transform="translate(-306.864 -109.412)" fill="#242c36"/></g><g transform="translate(12.838 58.797)"><path d="M314.53,129.544a1.807,1.807,0,1,1-1.8,1.807A1.807,1.807,0,0,1,314.53,129.544Z" transform="translate(-312.725 -129.544)" fill="#242c36"/></g><g transform="translate(12.837 44.098)"><path d="M316.329,124.453a1.807,1.807,0,1,1-1.985-1.61A1.807,1.807,0,0,1,316.329,124.453Z" transform="translate(-312.725 -122.834)" fill="#242c36"/></g><g transform="translate(12.837 29.398)"><path d="M316.329,117.742a1.807,1.807,0,1,1-1.985-1.61A1.807,1.807,0,0,1,316.329,117.742Z" transform="translate(-312.725 -116.123)" fill="#242c36"/></g><g transform="translate(12.837)"><path d="M316.329,104.321a1.807,1.807,0,1,1-1.985-1.61A1.809,1.809,0,0,1,316.329,104.321Z" transform="translate(-312.725 -102.701)" fill="#242c36"/></g><g transform="translate(12.837 14.698)"><path d="M316.329,111.031a1.807,1.807,0,1,1-1.985-1.61A1.806,1.806,0,0,1,316.329,111.031Z" transform="translate(-312.725 -109.412)" fill="#242c36"/></g></g></g></g></svg>