<svg xmlns="http://www.w3.org/2000/svg" width="1921" height="484.648" viewBox="0 0 1921 484.648"><path d="M0,0C79.986,35.242,165.647,56.544,257,60.182c145.089,5.778,222.056-36.418,387-31.955A955.09,955.09,0,0,1,776,41.009c115.629,19.441,165.565,57.122,279,70.3,51.932,6.033,133.882,5.887,233-11.184,117.612-20.257,174.79-55.621,299-76.159,37.906-6.268,75.117-10.25,120-7.989,81.426,4.1,154.816,27.723,214,63.377l-1,7.456V484.648H0" transform="translate(1921 484.648) rotate(180)" fill="#f9f9f9"/></svg>