<svg xmlns="http://www.w3.org/2000/svg" xmlns:xlink="http://www.w3.org/1999/xlink" width="1920" height="913.26" viewBox="0 0 1920 913.26"><defs><linearGradient id="a" x1="0.5" y1="1" x2="0.5" gradientUnits="objectBoundingBox"><stop offset="0" stop-color="#4734f7"/><stop offset="1" stop-color="#6400bd"/></linearGradient></defs><path d="M1920,321.866C1711.37,190.709,1502.021,126.231,1293.344,141.1c-268.468,19.131-381.408,158.655-646.687,180.765C433.479,339.633,217.577,275.683,0,141.1V1032.26H1920" transform="translate(0 -139)" opacity="0.09" fill="url(#a)"/><path d="M1920,321.866C1711.37,190.709,1502.021,126.231,1293.344,141.1c-268.468,19.131-381.408,158.655-646.687,180.765C433.479,339.633,217.577,275.683,0,141.1V1032.26H1920" transform="translate(0 -119)" fill="url(#a)"/><path d="M1343.5,196.166h-.017c-23.381,0-46.98-1.035-70.144-3.075-15.64-1.377-31.316-3.244-46.591-5.55-14.574-2.2-29.26-4.873-43.649-7.944a772.105,772.105,0,0,1-80.115-21.731c-22.922-7.513-46.891-16.44-73.275-27.292-23.326-9.593-46.29-19.747-69.721-30.175l5.449-2.426c23.586-10.5,47.976-21.365,72.664-31.572,27.62-11.419,52.6-20.746,76.382-28.516a767.029,767.029,0,0,1,83.834-22.41c15.1-3.119,30.537-5.8,45.879-7.963,16.09-2.271,32.624-4.051,49.142-5.294C1312.9.746,1332.794,0,1352.464,0c16.521,0,33.315.526,49.914,1.564,16.521,1.033,33.319,2.6,49.929,4.666,16.538,2.055,33.34,4.654,49.94,7.728,16.535,3.061,33.34,6.678,49.947,10.749,16.534,4.054,33.34,8.673,49.951,13.729,16.529,5.032,33.334,10.64,49.951,16.669,16.529,6,33.334,12.582,49.947,19.568,16.535,6.954,33.337,14.5,49.94,22.428-17.1,8.118-34.375,15.834-51.349,22.936-17.056,7.137-34.307,13.862-51.272,19.99-17.025,6.149-34.248,11.873-51.192,17.01-17.016,5.158-34.211,9.866-51.109,13.994-16.959,4.144-34.126,7.826-51.024,10.945-16.944,3.127-34.082,5.771-50.935,7.86-16.9,2.095-34.01,3.69-50.845,4.742C1377.372,195.632,1360.3,196.166,1343.5,196.166Zm-766.992,0c-16.787,0-33.863-.534-50.754-1.587-16.816-1.05-33.924-2.645-50.847-4.741-16.855-2.089-33.992-4.733-50.937-7.86-16.875-3.114-34.042-6.8-51.025-10.944-16.921-4.134-34.117-8.843-51.11-14-16.928-5.132-34.152-10.854-51.194-17.01-16.966-6.128-34.217-12.854-51.275-19.99-16.983-7.105-34.26-14.823-51.352-22.937,16.626-7.938,33.428-15.483,49.937-22.426,16.608-6.984,33.412-13.568,49.947-19.568,16.611-6.026,33.417-11.635,49.952-16.669,16.606-5.055,33.412-9.674,49.952-13.729,16.6-4.07,33.409-7.687,49.949-10.749,16.606-3.074,33.408-5.674,49.941-7.728,16.6-2.063,33.4-3.634,49.929-4.667C534.223.526,551.016,0,567.536,0c19.67,0,39.561.746,59.121,2.218,13.24,1,26.529,2.34,39.5,4,12.472,1.592,24.992,3.517,37.212,5.721,11.841,2.136,23.816,4.6,35.591,7.334,11.207,2.6,22.618,5.527,33.914,8.7C793.7,33.827,814.558,40.607,836.63,48.7c18.416,6.753,38.018,14.557,59.926,23.859,19.542,8.3,39.088,17,57.991,25.415l.024.011,2.85,1.269,2.571,1.145c-23.447,10.437-46.421,20.6-69.708,30.174-26.381,10.852-50.347,19.779-73.268,27.292A772.035,772.035,0,0,1,736.9,179.6c-14.392,3.071-29.078,5.744-43.651,7.944-15.27,2.306-30.947,4.174-46.6,5.551C623.493,195.131,599.893,196.165,576.513,196.166ZM1920,193.093v0h0c-27.96-18.56-56.215-36.019-83.979-51.891-27.98-16-56.255-30.832-84.038-44.1,27.721-13.161,55.956-27.845,83.919-43.645,27.784-15.7,56.078-32.937,84.1-51.238V193.093Zm-1920,0V2.218c28.014,18.3,56.309,35.537,84.1,51.238,27.956,15.8,56.19,30.48,83.919,43.645-27.776,13.264-56.051,28.1-84.038,44.1C56.216,157.071,27.961,174.53,0,193.091Z" transform="translate(0 50.001)" fill="rgba(245,245,245,0.69)" opacity="0.95"/></svg>